<svg width="33" height="32" viewBox="0 0 33 32" fill="none" xmlns="http://www.w3.org/2000/svg">
<path d="M12.556 29.3327C13.2924 29.3327 13.8894 28.7357 13.8894 27.9993C13.8894 27.263 13.2924 26.666 12.556 26.666C11.8196 26.666 11.2227 27.263 11.2227 27.9993C11.2227 28.7357 11.8196 29.3327 12.556 29.3327Z" stroke="white" stroke-width="2.6" stroke-linecap="round" stroke-linejoin="round"/>
<path d="M27.2239 29.3327C27.9603 29.3327 28.5573 28.7357 28.5573 27.9993C28.5573 27.263 27.9603 26.666 27.2239 26.666C26.4875 26.666 25.8906 27.263 25.8906 27.9993C25.8906 28.7357 26.4875 29.3327 27.2239 29.3327Z" stroke="white" stroke-width="2.6" stroke-linecap="round" stroke-linejoin="round"/>
<path d="M1.89062 1.33398H7.22396L10.7973 19.1873C10.9192 19.8012 11.2531 20.3526 11.7407 20.7451C12.2282 21.1375 12.8382 21.346 13.4639 21.334H26.4239C27.0497 21.346 27.6597 21.1375 28.1472 20.7451C28.6347 20.3526 28.9687 19.8012 29.0906 19.1873L31.2239 8.00064H8.55729" stroke="white" stroke-width="2.6" stroke-linecap="round" stroke-linejoin="round"/>
</svg>
