<svg width="159" height="30" viewBox="0 0 159 30" fill="none" xmlns="http://www.w3.org/2000/svg">
<g clip-path="url(#clip0_2577_2889)">
<mask id="mask0_2577_2889" style="mask-type:luminance" maskUnits="userSpaceOnUse" x="0" y="0" width="159" height="30">
<path d="M158.841 0H0V30H158.841V0Z" fill="white"/>
</mask>
<g mask="url(#mask0_2577_2889)">
<path d="M0 0.371094V29.6962H15.5568V24.9043H5.87177V0.371094H0Z" fill="white"/>
<path d="M20.8223 0.371094V29.7299H37.8302V24.938H26.6941V17.1427H36.5816V12.4858H26.6941V5.12925H37.8302V0.371094H20.8223Z" fill="white"/>
<path d="M63.3063 9.21205C62.6313 7.99721 61.7202 7.05232 60.5391 6.41115C59.358 5.76998 57.9744 5.43253 56.4221 5.43253C54.7011 5.43253 53.1488 5.83748 51.7989 6.61363C50.4491 7.38978 49.403 8.50339 48.6606 9.98821C47.9182 11.4393 47.5132 13.1266 47.5132 15.0163C47.5132 16.9736 47.8844 18.6946 48.6606 20.1457C49.4367 21.5967 50.5166 22.7104 51.8664 23.5203C53.25 24.2964 54.8361 24.7014 56.6583 24.7014C58.8856 24.7014 60.7416 24.0939 62.1589 22.9128C63.5762 21.7317 64.5211 20.0782 64.9598 17.9522H54.8698V13.4303H70.7641V18.5596C70.3591 20.6181 69.5155 22.5079 68.2331 24.2289C66.9508 25.95 65.2973 27.3673 63.2725 28.4134C61.2478 29.4595 58.953 29.9994 56.4559 29.9994C53.6212 29.9994 51.0565 29.3583 48.7956 28.0759C46.5009 26.7936 44.7123 25.0388 43.43 22.7779C42.1139 20.5169 41.4727 17.9185 41.4727 15.0501C41.4727 12.1817 42.1139 9.58326 43.43 7.28854C44.7461 4.99383 46.5346 3.23905 48.7956 1.95671C51.0903 0.674373 53.6212 0.0332031 56.4221 0.0332031C59.7292 0.0332031 62.5976 0.843102 65.0273 2.4629C67.457 4.0827 69.1443 6.34366 70.0554 9.2458H63.3063V9.21205Z" fill="white"/>
<path d="M126.008 22.2046C127.695 20.5173 128.539 18.1551 128.539 15.0843C128.539 12.0134 127.695 9.65118 126.008 7.93015C124.32 6.20911 121.958 5.33172 118.854 5.33172H114.703V24.7355H118.854C121.958 24.7018 124.32 23.8582 126.008 22.2046ZM127.223 2.15962C129.551 3.37447 131.373 5.0955 132.656 7.32272C133.938 9.54995 134.579 12.1484 134.579 15.0843C134.579 18.0201 133.904 20.5848 132.622 22.812C131.34 25.0055 129.551 26.7265 127.189 27.9076C124.86 29.1225 122.127 29.7299 119.056 29.7299H108.797V0.371094H119.056C122.161 0.371094 124.86 0.978518 127.223 2.15962Z" fill="white"/>
<path d="M137.346 0.371094V5.12925H145.141V29.7299H151.047V5.12925H158.842V0.371094H137.346Z" fill="white"/>
<path d="M88.6833 24.7357C87.2997 24.6007 86.0511 24.2295 84.9713 23.5883C83.6214 22.7784 82.5416 21.6648 81.7992 20.18C81.0568 18.6952 80.6518 16.9741 80.6518 15.0169C80.6518 13.0596 81.023 11.3386 81.7992 9.88751C82.5416 8.4027 83.6214 7.28909 84.9713 6.51294C86.3211 5.73678 87.9072 5.33183 89.6619 5.33183C91.4167 5.33183 92.969 5.73678 94.3188 6.51294C95.6687 7.28909 96.7148 8.43645 97.4572 9.88751C98.0984 11.1024 98.4358 12.5197 98.5708 14.072H104.612C104.477 11.6085 103.836 9.34758 102.655 7.32283C101.338 5.02812 99.5157 3.23959 97.221 1.95726C94.96 0.64117 92.4291 0 89.6619 0C86.9285 0 84.3976 0.64117 82.1029 1.92351C79.8082 3.20585 77.9859 4.99438 76.6361 7.28909C75.2862 9.5838 74.6113 12.1485 74.6113 14.9831C74.6113 17.8515 75.2862 20.4499 76.6361 22.7447C77.9859 25.0394 79.8082 26.8279 82.1029 28.1102C84.1276 29.2576 86.3211 29.865 88.717 30V24.7357H88.6833Z" fill="white"/>
<path d="M98.5364 16.1304C98.4014 17.6152 98.0639 18.9651 97.4565 20.1462C96.7141 21.631 95.6342 22.7783 94.3181 23.5545C93.272 24.1619 92.0909 24.5669 90.8086 24.7019V29.9662C93.1033 29.7975 95.263 29.19 97.2203 28.0764C99.515 26.7941 101.337 25.0056 102.653 22.7109C103.801 20.7199 104.442 18.5264 104.611 16.0967H98.5364V16.1304Z" fill="white"/>
</g>
</g>
<defs>
<clipPath id="clip0_2577_2889">
<rect width="159" height="30" fill="white"/>
</clipPath>
</defs>
</svg>
